<svg width="20" height="20" viewBox="0 0 20 20" fill="none" xmlns="http://www.w3.org/2000/svg">
<path d="M4.21053 1.25H15.7895C17.4245 1.25 18.75 2.57547 18.75 4.21053V15.7895C18.75 17.4245 17.4245 18.75 15.7895 18.75H4.21053C2.57547 18.75 1.25 17.4245 1.25 15.7895V4.21053C1.25 2.57547 2.57547 1.25 4.21053 1.25Z" stroke="white" stroke-width="2.5"/>
<path d="M16.3161 5.00036C16.3161 5.72705 15.7271 6.31615 15.0004 6.31615C14.2737 6.31615 13.6846 5.72705 13.6846 5.00036C13.6846 4.27367 14.2737 3.68457 15.0004 3.68457C15.7271 3.68457 16.3161 4.27367 16.3161 5.00036Z" fill="white"/>
<path d="M13.75 10C13.75 12.0711 12.0711 13.75 10 13.75C7.92893 13.75 6.25 12.0711 6.25 10C6.25 7.92893 7.92893 6.25 10 6.25C12.0711 6.25 13.75 7.92893 13.75 10Z" stroke="white" stroke-width="2.5"/>
</svg>
