<svg width="500" height="235" viewBox="0 0 500 235" fill="none" xmlns="http://www.w3.org/2000/svg">
<rect x="3.5" y="3.5" width="493" height="228" stroke="#009CAD" stroke-width="7"/>
<path d="M94.654 79.3H102.868V149.896H146.38V157H94.654V79.3ZM192.467 157.666C184.771 157.666 177.778 155.964 171.488 152.56C165.272 149.082 160.388 144.346 156.836 138.352C153.358 132.358 151.619 125.624 151.619 118.15C151.619 110.676 153.358 103.942 156.836 97.948C160.388 91.954 165.272 87.255 171.488 83.851C177.778 80.373 184.771 78.634 192.467 78.634C200.163 78.634 207.082 80.336 213.224 83.74C219.44 87.144 224.324 91.88 227.876 97.948C231.428 103.942 233.204 110.676 233.204 118.15C233.204 125.624 231.428 132.395 227.876 138.463C224.324 144.457 219.44 149.156 213.224 152.56C207.082 155.964 200.163 157.666 192.467 157.666ZM192.467 150.34C198.609 150.34 204.159 148.971 209.117 146.233C214.075 143.421 217.96 139.573 220.772 134.689C223.584 129.731 224.99 124.218 224.99 118.15C224.99 112.082 223.584 106.606 220.772 101.722C217.96 96.764 214.075 92.916 209.117 90.178C204.159 87.366 198.609 85.96 192.467 85.96C186.325 85.96 180.738 87.366 175.706 90.178C170.748 92.916 166.826 96.764 163.94 101.722C161.128 106.606 159.722 112.082 159.722 118.15C159.722 124.218 161.128 129.731 163.94 134.689C166.826 139.573 170.748 143.421 175.706 146.233C180.738 148.971 186.325 150.34 192.467 150.34ZM306.338 118.15H314.219V147.787C310.593 150.969 306.301 153.411 301.343 155.113C296.385 156.815 291.168 157.666 285.692 157.666C277.922 157.666 270.929 155.964 264.713 152.56C258.497 149.156 253.613 144.457 250.061 138.463C246.509 132.395 244.733 125.624 244.733 118.15C244.733 110.676 246.509 103.942 250.061 97.948C253.613 91.88 258.497 87.144 264.713 83.74C270.929 80.336 277.959 78.634 285.803 78.634C291.723 78.634 297.162 79.596 302.12 81.52C307.078 83.37 311.259 86.145 314.663 89.845L309.557 95.062C303.415 88.994 295.608 85.96 286.136 85.96C279.846 85.96 274.148 87.366 269.042 90.178C264.01 92.916 260.051 96.764 257.165 101.722C254.279 106.606 252.836 112.082 252.836 118.15C252.836 124.218 254.279 129.694 257.165 134.578C260.051 139.462 264.01 143.31 269.042 146.122C274.074 148.934 279.735 150.34 286.025 150.34C294.017 150.34 300.788 148.342 306.338 144.346V118.15ZM371.433 157.666C363.737 157.666 356.744 155.964 350.454 152.56C344.238 149.082 339.354 144.346 335.802 138.352C332.324 132.358 330.585 125.624 330.585 118.15C330.585 110.676 332.324 103.942 335.802 97.948C339.354 91.954 344.238 87.255 350.454 83.851C356.744 80.373 363.737 78.634 371.433 78.634C379.129 78.634 386.048 80.336 392.19 83.74C398.406 87.144 403.29 91.88 406.842 97.948C410.394 103.942 412.17 110.676 412.17 118.15C412.17 125.624 410.394 132.395 406.842 138.463C403.29 144.457 398.406 149.156 392.19 152.56C386.048 155.964 379.129 157.666 371.433 157.666ZM371.433 150.34C377.575 150.34 383.125 148.971 388.083 146.233C393.041 143.421 396.926 139.573 399.738 134.689C402.55 129.731 403.956 124.218 403.956 118.15C403.956 112.082 402.55 106.606 399.738 101.722C396.926 96.764 393.041 92.916 388.083 90.178C383.125 87.366 377.575 85.96 371.433 85.96C365.291 85.96 359.704 87.366 354.672 90.178C349.714 92.916 345.792 96.764 342.906 101.722C340.094 106.606 338.688 112.082 338.688 118.15C338.688 124.218 340.094 129.731 342.906 134.689C345.792 139.573 349.714 143.421 354.672 146.233C359.704 148.971 365.291 150.34 371.433 150.34Z" fill="#009CAD"/>
</svg>
