<svg width="21" height="18" viewBox="0 0 21 18" fill="none" xmlns="http://www.w3.org/2000/svg">
<path d="M20.9937 2.10096C20.2215 2.44331 19.3908 2.67486 18.5197 2.77827C19.4091 2.24548 20.0917 1.40245 20.4139 0.396274C19.5816 0.889888 18.6594 1.24798 17.6788 1.44099C16.8931 0.604383 15.7737 0.081543 14.5341 0.081543C12.1559 0.081543 10.227 2.01007 10.227 4.3879C10.227 4.72543 10.2652 5.05397 10.3391 5.36935C6.75955 5.18982 3.58567 3.4755 1.46118 0.869334C1.09051 1.50522 0.877867 2.24548 0.877867 3.03456C0.877867 4.52824 1.63881 5.8469 2.79389 6.61896C2.08819 6.5968 1.4236 6.40314 0.843177 6.07974C0.842855 6.09805 0.842855 6.11635 0.842855 6.13434C0.842855 8.22088 2.32813 9.96121 4.29811 10.3566C3.93707 10.4555 3.5558 10.5078 3.1636 10.5078C2.88543 10.5078 2.61594 10.4812 2.35319 10.4311C2.90117 12.1415 4.49148 13.3866 6.37666 13.4216C4.90231 14.5768 3.04539 15.2651 1.02691 15.2651C0.680001 15.2651 0.336307 15.2448 0 15.2047C1.9051 16.427 4.16963 17.1396 6.60183 17.1396C14.5242 17.1396 18.8566 10.5778 18.8566 4.88665C18.8566 4.70006 18.8525 4.51411 18.8441 4.32977C19.6863 3.72279 20.4164 2.96455 20.9937 2.10096Z" fill="white"/>
</svg>
